<svg xmlns="http://www.w3.org/2000/svg" width="1120" height="460" viewBox="0 0 1120 460"><rect width="1120" height="460" fill="#080a0e"/><g transform="translate(56,56)"><text x="0" y="-22" fill="#cba33f" font-family="monospace" font-size="15" font-weight="bold">Step response — a 1000px jump</text><text x="0" y="-6" fill="#6b7688" font-family="monospace" font-size="11">the ease you see when a multi-line reply lands at once</text><rect x="0" y="0" width="481.6" height="336.79999999999995" fill="#0b0e12" stroke="#232b36"/><line x1="0" y1="0" x2="481.6" y2="0" stroke="#171d26"/><text x="-8" y="4" fill="#5a6472" font-family="monospace" font-size="10" text-anchor="end">1050</text><line x1="0" y1="84.19999999999999" x2="481.6" y2="84.19999999999999" stroke="#171d26"/><text x="-8" y="88.19999999999999" fill="#5a6472" font-family="monospace" font-size="10" text-anchor="end">788</text><line x1="0" y1="168.39999999999998" x2="481.6" y2="168.39999999999998" stroke="#171d26"/><text x="-8" y="172.39999999999998" fill="#5a6472" font-family="monospace" font-size="10" text-anchor="end">525</text><line x1="0" y1="252.59999999999997" x2="481.6" y2="252.59999999999997" stroke="#171d26"/><text x="-8" y="256.59999999999997" fill="#5a6472" font-family="monospace" font-size="10" text-anchor="end">263</text><line x1="0" y1="336.79999999999995" x2="481.6" y2="336.79999999999995" stroke="#171d26"/><text x="-8" y="340.79999999999995" fill="#5a6472" font-family="monospace" font-size="10" text-anchor="end">0</text><line x1="0" y1="0" x2="0" y2="336.79999999999995" stroke="#171d26"/><text x="0" y="351.79999999999995" fill="#5a6472" font-family="monospace" font-size="10" text-anchor="middle">0</text><line x1="120.4" y1="0" x2="120.4" y2="336.79999999999995" stroke="#171d26"/><text x="120.4" y="351.79999999999995" fill="#5a6472" font-family="monospace" font-size="10" text-anchor="middle">250</text><line x1="240.8" y1="0" x2="240.8" y2="336.79999999999995" stroke="#171d26"/><text x="240.8" y="351.79999999999995" fill="#5a6472" font-family="monospace" font-size="10" text-anchor="middle">500</text><line x1="361.20000000000005" y1="0" x2="361.20000000000005" y2="336.79999999999995" stroke="#171d26"/><text x="361.20000000000005" y="351.79999999999995" fill="#5a6472" font-family="monospace" font-size="10" text-anchor="middle">750</text><line x1="481.6" y1="0" x2="481.6" y2="336.79999999999995" stroke="#171d26"/><text x="481.6" y="351.79999999999995" fill="#5a6472" font-family="monospace" font-size="10" text-anchor="middle">1000</text><text x="240.8" y="370.79999999999995" fill="#6b7688" font-family="monospace" font-size="11" text-anchor="middle">ms</text><text transform="translate(-40,168.39999999999998) rotate(-90)" fill="#6b7688" font-family="monospace" font-size="11" text-anchor="middle">scroll position (px)</text></g><g transform="translate(56,56)"><line x1="0" y1="16.038095238095252" x2="481.6" y2="16.038095238095252" stroke="#3a4453" stroke-dasharray="4 4"/><text x="477.6" y="11.038095238095252" fill="#3a4453" font-family="monospace" font-size="10" text-anchor="end">target</text><polyline points="0,336.79999999999995 8.026666666666667,325.31911370830284 16.053333333333335,306.70146026230753 24.080000000000002,284.0583682333944 32.10666666666667,259.5793498237585 40.13333333333333,234.7695338680464 48.160000000000004,210.63025347870496 56.18666666666667,187.79579905635495 64.21333333333334,166.6364590510885 72.24,147.33570972196034 80.26666666666667,129.94764726328634 88.29333333333334,114.43937534068522 96.32000000000001,100.72198494231563 104.34666666666668,88.67292580861266 112.37333333333333,78.15191783323797 120.4,69.01204603995876 128.42666666666668,61.10729205658208 136.45333333333335,54.297453320902946 144.48,48.45116887373797 152.50666666666666,43.447592094632796 160.53333333333333,39.177114047032376 168.56,35.54143679029147 176.58666666666667,32.45321672665051 184.61333333333332,29.83543804862569 192.64000000000001,27.620631176501263 200.66666666666669,25.750017264233975 208.69333333333336,24.172634721997838 216.72000000000003,22.84448518019815 224.74666666666667,21.72772280270891 232.77333333333334,20.78990111504902 240.8,20.003284601634448 248.82666666666665,19.344227522827566 256.85333333333335,18.792619156956164 264.88000000000005,18.331392567249452 272.9066666666667,17.946092713440464 280.93333333333334,17.624499035777887 288.96,17.356297358653876 296.9866666666667,17.132795961050533 305.0133333333333,16.946680845442188 313.04,16.791805535867695 321.06666666666666,16.66301109963115 329.09333333333336,16.55597248032643 337.12,16.46706762843189 345.1466666666667,16.393266303500184 353.17333333333335,16.3320357887863 361.20000000000005,16.281261099066455 369.22666666666663,16.23917757245181 377.25333333333333,16.20431401632578 385.28000000000003,16.175444826664148 393.3066666666667,16.1515497203564 401.33333333333337,16.131779913703497 409.36,16.115429749282555 417.3866666666667,16.101912920190387 425.41333333333336,16.09074256766621 433.44000000000005,16.08151463748311 441.4666666666667,16.07389397441898 449.49333333333334,16.06760271449383 457.52,16.06241060326215 465.5466666666667,16.058126926854754 473.5733333333333,16.054593792073263" fill="none" stroke="#4a566a" stroke-width="1.3"/><polyline points="0,336.79999999999995 8.026666666666667,307.482119034742 16.053333333333335,266.57344792042863 24.080000000000002,223.76204791707744 32.10666666666667,183.93748977442516 40.13333333333333,149.20677046397262 48.160000000000004,120.12988918080302 56.18666666666667,96.46266022938588 64.21333333333334,77.59178000234232 72.24,62.78033331251169 80.26666666666667,51.29859169248783 88.29333333333334,42.48702254223707 96.32000000000001,35.780542850714255 104.34666666666668,30.71169192107493 112.37333333333333,26.903252939950562 120.4,24.05641317000709 128.42666666666668,21.937834736560774 136.45333333333335,20.36737688618632 144.48,19.207257543912476 152.50666666666666,18.352906090299882 160.53333333333333,17.72547540221234 168.56,17.265845944659873 176.58666666666667,16.929904148442063 184.61333333333332,16.68487260574625 192.64000000000001,16.506487660608684 200.66666666666669,16.376847438851826 208.69333333333336,16.282782905856095 216.72000000000003,16.214632394472858 224.74666666666667,16.1653245309397 232.77333333333334,16.129695094665806 240.8,16.103980184764794 248.82666666666665,16.08544152878966 256.85333333333335,16.07209035869505 264.88000000000005,16.0624845023043 272.9066666666667,16.055579658387103 280.93333333333334,16.0506206391579 288.96,16.047062007418674 296.9866666666667,16.044510275357595 305.0133333333333,16.04268188154896 313.04,16.041372688919694 321.06666666666666,16.04043587845149 329.09333333333336,16.03976595003536 337.12,16.03928715831421 345.1466666666667,16.03894516422764 353.17333333333335,16.038701014852677 361.20000000000005,16.03852680678915 369.22666666666663,16.0384025653795 377.25333333333333,16.038314000977323 385.28000000000003,16.038250897197372 393.3066666666667,16.038205954098316 401.33333333333337,16.03817395853656 409.36,16.038151189601876 417.3866666666667,16.03813499282211 425.41333333333336,16.03812347543402 433.44000000000005,16.038115288435904 441.4666666666667,16.0381094708016 449.49333333333334,16.03810533819035 457.52,16.03810240348713 465.5466666666667,16.038100320099318 473.5733333333333,16.038098841512067" fill="none" stroke="#cba33f" stroke-width="2.6"/><polyline points="0,336.79999999999995 8.026666666666667,285.4780952380952 16.053333333333335,223.8918095238095 24.080000000000002,168.46415238095238 32.10666666666667,124.1220266666667 40.13333333333333,90.86543238095243 48.160000000000004,66.92068449523816 56.18666666666667,50.1593609752382 64.21333333333334,38.66588199009544 72.24,30.90778367512405 80.26666666666667,25.735718131809847 88.29333333333334,22.322154873222416 96.32000000000001,20.087822558510652 104.34666666666668,18.63550655394795 112.37333333333333,17.697086981768962 120.4,17.09381725679674 128.42666666666668,16.707724632814575 136.45333333333335,16.46159058502593 144.48,16.305223072313083 152.50666666666666,16.206190314261676 160.53333333333333,16.143643309176582 168.56,16.104238695972924 176.58666666666667,16.0794700819593 184.61333333333332,16.063933405896137 192.64000000000001,16.05420609566528 200.66666666666669,16.048126526771 208.69333333333336,16.04433287578098 216.72000000000003,16.041969139394894 224.74666666666667,16.04049837008796 232.77333333333334,16.039584392018753 240.8,16.039017095286113 248.82666666666665,16.038665371311822 256.85333333333335,16.038447529366465 264.88000000000005,16.038312739662786 272.9066666666667,16.03822941511868 280.93333333333334,16.038177949959106 288.96,16.038146188603434 296.9866666666667,16.038126602434204 305.0133333333333,16.03811453311897 313.04,16.038107100961724 321.06666666666666,16.0381025273266 329.09333333333336,16.03809971454092 337.12,16.038097985706827 345.1466666666667,16.038096923708736 353.17333333333335,16.038096271691302 361.20000000000005,16.038095871589746 369.22666666666663,16.038095626194036 377.25333333333333,16.03809547575588 385.28000000000003,16.03809538357251 393.3066666666667,16.03809532711017 401.33333333333337,16.038095292541414 409.36,16.038095271385316 417.3866666666667,16.038095258442752 425.41333333333336,16.038095250527817 433.44000000000005,16.038095245689306 441.4666666666667,16.03809524273248 449.49333333333334,16.038095240926054 457.52,16.038095239822837 465.5466666666667,16.038095239149357 473.5733333333333,16.038095238738265" fill="none" stroke="#3fa37a" stroke-width="1.3"/><line x1="12" y1="18" x2="34" y2="18" stroke="#4a566a" stroke-width="1.3"/><text x="40" y="22" fill="#8b95a5" font-family="monospace" font-size="11">ω=14 (loose) — 1033ms</text><line x1="12" y1="34" x2="34" y2="34" stroke="#cba33f" stroke-width="2.6"/><text x="40" y="38" fill="#8b95a5" font-family="monospace" font-size="11">ω=26 (chosen) — 633ms</text><line x1="12" y1="50" x2="34" y2="50" stroke="#3fa37a" stroke-width="1.3"/><text x="40" y="54" fill="#8b95a5" font-family="monospace" font-size="11">ω=40 (taut) — 467ms</text></g><g transform="translate(582.4,56)"><text x="0" y="-22" fill="#cba33f" font-family="monospace" font-size="15" font-weight="bold">Following a moving target — 250px/s stream</text><text x="0" y="-6" fill="#6b7688" font-family="monospace" font-size="11">text is still arriving; the lag must stay flat, not grow</text><rect x="0" y="0" width="481.6" height="336.79999999999995" fill="#0b0e12" stroke="#232b36"/><line x1="0" y1="0" x2="481.6" y2="0" stroke="#171d26"/><text x="-8" y="4" fill="#5a6472" font-family="monospace" font-size="10" text-anchor="end">394</text><line x1="0" y1="84.19999999999999" x2="481.6" y2="84.19999999999999" stroke="#171d26"/><text x="-8" y="88.19999999999999" fill="#5a6472" font-family="monospace" font-size="10" text-anchor="end">295</text><line x1="0" y1="168.39999999999998" x2="481.6" y2="168.39999999999998" stroke="#171d26"/><text x="-8" y="172.39999999999998" fill="#5a6472" font-family="monospace" font-size="10" text-anchor="end">197</text><line x1="0" y1="252.59999999999997" x2="481.6" y2="252.59999999999997" stroke="#171d26"/><text x="-8" y="256.59999999999997" fill="#5a6472" font-family="monospace" font-size="10" text-anchor="end">98</text><line x1="0" y1="336.79999999999995" x2="481.6" y2="336.79999999999995" stroke="#171d26"/><text x="-8" y="340.79999999999995" fill="#5a6472" font-family="monospace" font-size="10" text-anchor="end">0</text><line x1="0" y1="0" x2="0" y2="336.79999999999995" stroke="#171d26"/><text x="0" y="351.79999999999995" fill="#5a6472" font-family="monospace" font-size="10" text-anchor="middle">0</text><line x1="120.4" y1="0" x2="120.4" y2="336.79999999999995" stroke="#171d26"/><text x="120.4" y="351.79999999999995" fill="#5a6472" font-family="monospace" font-size="10" text-anchor="middle">375</text><line x1="240.8" y1="0" x2="240.8" y2="336.79999999999995" stroke="#171d26"/><text x="240.8" y="351.79999999999995" fill="#5a6472" font-family="monospace" font-size="10" text-anchor="middle">750</text><line x1="361.20000000000005" y1="0" x2="361.20000000000005" y2="336.79999999999995" stroke="#171d26"/><text x="361.20000000000005" y="351.79999999999995" fill="#5a6472" font-family="monospace" font-size="10" text-anchor="middle">1125</text><line x1="481.6" y1="0" x2="481.6" y2="336.79999999999995" stroke="#171d26"/><text x="481.6" y="351.79999999999995" fill="#5a6472" font-family="monospace" font-size="10" text-anchor="middle">1500</text><text x="240.8" y="370.79999999999995" fill="#6b7688" font-family="monospace" font-size="11" text-anchor="middle">ms</text><text transform="translate(-40,168.39999999999998) rotate(-90)" fill="#6b7688" font-family="monospace" font-size="11" text-anchor="middle">scroll position (px)</text></g><g transform="translate(582.4,56)"><polyline points="0,333.2359788359788 5.351111111111112,329.6719576719576 10.702222222222224,326.1079365079365 16.053333333333335,322.5439153439153 21.404444444444447,318.97989417989413 26.755555555555556,315.415873015873 32.10666666666667,311.8518518518518 37.45777777777778,308.28783068783065 42.808888888888895,304.7238095238095 48.160000000000004,301.1597883597883 53.51111111111111,297.59576719576717 58.862222222222215,294.031746031746 64.21333333333334,290.4677248677248 69.56444444444446,286.9037037037037 74.91555555555556,283.3396825396825 80.26666666666667,279.77566137566134 85.61777777777779,276.2116402116402 90.96888888888888,272.647619047619 96.32000000000001,269.08359788359786 101.6711111111111,265.51957671957666 107.02222222222223,261.9555555555555 112.37333333333333,258.3915343915343 117.72444444444443,254.82751322751318 123.07555555555555,251.26349206349198 128.42666666666668,247.69947089947084 133.7777777777778,244.13544973544967 139.12888888888892,240.5714285714285 144.48,237.00740740740736 149.8311111111111,233.44338624338616 155.1822222222222,229.87936507936502 160.53333333333333,226.31534391534387 165.88444444444445,222.75132275132268 171.23555555555558,219.18730158730153 176.58666666666667,215.6232804232804 181.93777777777777,212.05925925925922 187.2888888888889,208.49523809523808 192.64000000000001,204.9312169312169 197.99111111111114,201.36719576719574 203.3422222222222,197.8031746031746 208.69333333333336,194.23915343915343 214.04444444444445,190.67513227513228 219.39555555555557,187.11111111111114 224.74666666666667,183.54708994709 230.09777777777776,179.98306878306883 235.44888888888886,176.41904761904766 240.8,172.85502645502652 246.1511111111111,169.29100529100535 251.50222222222226,165.72698412698418 256.85333333333335,162.16296296296306 262.20444444444445,158.5989417989419 267.5555555555556,155.03492063492072 272.9066666666667,151.47089947089958 278.25777777777785,147.9068783068784 283.6088888888889,144.34285714285727 288.96,140.77883597883613 294.3111111111111,137.21481481481496 299.6622222222222,133.6507936507938 305.0133333333333,130.08677248677262 310.3644444444444,126.5227513227515 315.71555555555557,122.95873015873033 321.06666666666666,119.39470899470919 326.41777777777776,115.83068783068802 331.7688888888889,112.26666666666685 337.12,108.70264550264565 342.47111111111116,105.13862433862448 347.82222222222225,101.57460317460331 353.17333333333335,98.01058201058211 358.5244444444445,94.44656084656097 363.87555555555554,90.88253968253977 369.2266666666667,87.3185185185186 374.5777777777778,83.7544973544974 379.9288888888889,80.1904761904762 385.28000000000003,76.626455026455 390.63111111111107,73.06243386243386 395.9822222222223,69.49841269841272 401.33333333333337,65.93439153439152 406.6844444444444,62.370370370370324 412.03555555555556,58.806349206349125 417.3866666666667,55.24232804232798 422.73777777777786,51.678306878306785 428.0888888888889,48.114285714285586 433.44000000000005,44.550264550264444 438.79111111111115,40.986243386243245 444.1422222222222,37.4222222222221 449.49333333333334,33.858201058200905 454.8444444444445,30.294179894179706 460.19555555555553,26.730158730158507 465.5466666666667,23.166137566137365 470.8977777777777,19.602116402116167 476.248888888889,16.038095238094968" fill="none" stroke="#3a4453" stroke-width="1.6" stroke-dasharray="4 4"/><polyline points="0,336.47424576705265 5.351111111111112,335.6939507439463 10.702222222222224,334.4379734985805 16.053333333333335,332.7395011627408 21.404444444444447,330.6551319456738 26.755555555555556,328.24768626990493 32.10666666666667,325.5772713835648 37.45777777777778,322.6971800502575 42.808888888888895,319.6525170870632 48.160000000000004,316.4802792169797 53.51111111111111,313.21013502300457 58.862222222222215,309.8654743880125 64.21333333333334,306.46449318713553 69.56444444444446,303.02119599757947 74.91555555555556,299.54626725502396 80.26666666666667,296.04779875209687 85.61777777777779,292.53188071749895 90.96888888888888,289.00307246798684 96.32000000000001,285.46477142454575 101.6711111111111,281.91949892901476 107.02222222222223,278.369119439511 112.37333333333333,274.8150072633826 117.72444444444443,271.25817251455754 123.07555555555555,267.6993557107865 128.42666666666668,264.1390984601071 133.7777777777778,260.57779604794996 139.12888888888892,257.01573640788854 144.48,253.45312890267675 149.8311111111111,249.8901255148397 155.1822222222222,246.32683640578153 160.53333333333333,242.76334131165697 165.88444444444445,239.199697871198 171.23555555555558,235.6359476990014 176.58666666666667,232.07212080631678 181.93777777777777,228.50823881341856 187.2888888888889,224.94431728016764 192.64000000000001,221.3803673943383 197.99111111111114,217.81639719302217 203.3422222222222,214.25241244512128 208.69333333333336,210.68841728821516 214.04444444444445,207.12441468766 219.39555555555557,203.56040676719687 224.74666666666667,199.9963950467994 230.09777777777776,196.4323806136311 235.44888888888886,192.86836424481763 240.8,189.3043464955441 246.1511111111111,185.74032776222165 251.50222222222226,182.17630832774609 256.85333333333335,178.61228839390273 262.20444444444445,175.04826810455316 267.5555555555556,171.48424756221542 272.9066666666667,167.92022683991345 278.25777777777785,164.35620598964047 283.6088888888889,160.79218504840088 288.96,157.22816404252092 294.3111111111111,153.66414299072304 299.6622222222222,150.1001219063173 305.0133333333333,146.53610079876287 310.3644444444444,142.9720796747797 315.71555555555557,139.4080585391403 321.06666666666666,135.84403739523324 326.41777777777776,132.28001624546332 331.7688888888889,128.71599509153717 337.12,125.15197393466522 342.47111111111116,121.58795277570599 347.82222222222225,118.02393161526811 353.17333333333335,114.45991045378295 358.5244444444445,110.89588929155624 363.87555555555554,107.33186812880464 369.2266666666667,103.7678469656814 374.5777777777778,100.20382580229528 379.9288888888889,96.63980463872309 385.28000000000003,93.07578347501934 390.63111111111107,89.51176231122258 395.9822222222223,85.94774114735995 401.33333333333337,82.38371998345082 406.6844444444444,78.8196988195088 412.03555555555556,75.25567765554348 417.3866666666667,71.69165649156179 422.73777777777786,68.12763532756844 428.0888888888889,64.56361416356691 433.44000000000005,60.999592999559695 438.79111111111115,57.43557183554833 444.1422222222222,53.87155067153401 449.49333333333334,50.307529507517756 454.8444444444445,46.743508343500025 460.19555555555553,43.17948717948133 465.5466666666667,39.615466015461834 470.8977777777777,36.05144485144183 476.248888888889,32.48742368742154" fill="none" stroke="#cba33f" stroke-width="2.6"/><line x1="12" y1="18" x2="34" y2="18" stroke="#3a4453" stroke-width="1.6" stroke-dasharray="4 4"/><text x="40" y="22" fill="#8b95a5" font-family="monospace" font-size="11">bottom of transcript (target)</text><line x1="12" y1="34" x2="34" y2="34" stroke="#cba33f" stroke-width="2.6"/><text x="40" y="38" fill="#8b95a5" font-family="monospace" font-size="11">viewport — steady lag 19px (&lt; 1 line)</text></g><text x="56" y="450" fill="#4a566a" font-family="monospace" font-size="10">flourish/src/scroller.js — critically damped, implicit integration. Zero overshoot at every distance; see test/scroller.test.js</text></svg>